<svg xmlns="http://www.w3.org/2000/svg" data-name="Layer 1" viewBox="0 0 100 125" x="0px" y="0px"><path d="M49.85,48.58a8.14,8.14,0,0,1,6.36,2.87c1.18,1.46,2.37,2.9,3.66,4.27a5.87,5.87,0,0,1,1.75,4c0,4.26-5.27,7.72-11.77,7.72S38.08,64,38.08,59.76a5.87,5.87,0,0,1,1.75-4c1.29-1.37,2.48-2.81,3.66-4.27a8.14,8.14,0,0,1,6.36-2.87m0-1.23a9.37,9.37,0,0,0-7.32,3.33c-1,1.28-2.26,2.77-3.6,4.19a7.12,7.12,0,0,0-2.08,4.89c0,2.49,1.42,4.8,4,6.49a16.55,16.55,0,0,0,9,2.46,16.55,16.55,0,0,0,9-2.46c2.58-1.69,4-4,4-6.49a7.12,7.12,0,0,0-2.08-4.89c-1.34-1.42-2.57-2.91-3.6-4.19a9.37,9.37,0,0,0-7.32-3.33Z"/><path d="M42.49,32.52c2.38,0,4.66,2.1,5.35,5.09.78,3.37-.77,6.6-3.45,7.21a4,4,0,0,1-.9.11c-2.38,0-4.67-2.1-5.35-5.09-.78-3.37.77-6.6,3.45-7.21a4,4,0,0,1,.9-.11m0-1.23a5.2,5.2,0,0,0-1.18.13,5.74,5.74,0,0,0-3.86,3.25,8.4,8.4,0,0,0-.52,5.45c.81,3.5,3.57,6,6.56,6A5.2,5.2,0,0,0,44.67,46c3.34-.77,5.3-4.67,4.38-8.7-.81-3.5-3.57-6-6.56-6Z"/><path d="M32.73,43a6,6,0,0,1,5,3.45c1.48,2.85.84,6.11-1.42,7.29a3.82,3.82,0,0,1-1.77.43,6,6,0,0,1-5-3.45c-1.48-2.85-.84-6.11,1.43-7.29A3.76,3.76,0,0,1,32.73,43m0-1.23a5,5,0,0,0-2.34.56,5.39,5.39,0,0,0-2.76,3.88,7.83,7.83,0,0,0,.81,5.08,7.19,7.19,0,0,0,6.11,4.11,5.08,5.08,0,0,0,2.34-.56c2.86-1.49,3.74-5.51,1.94-9a7.17,7.17,0,0,0-6.1-4.11Z"/><path d="M57.52,32.52a4,4,0,0,1,.9.11c2.68.61,4.23,3.84,3.45,7.21-.69,3-3,5.09-5.35,5.09a4,4,0,0,1-.9-.11c-2.69-.61-4.23-3.84-3.46-7.21.69-3,3-5.09,5.36-5.09m0-1.23c-3,0-5.75,2.54-6.56,6-.92,4,1,7.93,4.38,8.7a5.14,5.14,0,0,0,1.18.13c3,0,5.75-2.54,6.56-6a8.4,8.4,0,0,0-.52-5.45,5.74,5.74,0,0,0-3.86-3.25,5.2,5.2,0,0,0-1.18-.13Z"/><path d="M67.28,43a3.79,3.79,0,0,1,1.77.43c2.27,1.18,2.9,4.44,1.42,7.29a6,6,0,0,1-5,3.45,3.82,3.82,0,0,1-1.77-.43c-2.27-1.18-2.9-4.44-1.42-7.29a6,6,0,0,1,5-3.45m0-1.23a7.2,7.2,0,0,0-6.11,4.11c-1.79,3.45-.91,7.47,1.95,9a5.08,5.08,0,0,0,2.34.56,7.2,7.2,0,0,0,6.11-4.11c1.79-3.45.92-7.47-1.95-9a5.08,5.08,0,0,0-2.34-.56Z"/><text x="0" y="115" fill="#000000" font-size="5px" font-weight="bold" font-family="'Helvetica Neue', Helvetica, Arial-Unicode, Arial, Sans-serif">Created by Andrianxia</text><text x="0" y="120" fill="#000000" font-size="5px" font-weight="bold" font-family="'Helvetica Neue', Helvetica, Arial-Unicode, Arial, Sans-serif">from the Noun Project</text></svg>